<svg xmlns="http://www.w3.org/2000/svg" viewBox="0 0 48 48" width="48" height="48">
  <!-- Helicopter side view silhouette -->
  <g fill="#f59e0b">
    <!-- Main rotor mast -->
    <rect x="17" y="8" width="2" height="6" rx="0.5"/>
    <!-- Main rotor blades -->
    <rect x="1" y="6" width="34" height="2.5" rx="1.25"/>
    <!-- Fuselage / cabin -->
    <path d="M8 14h20c3 0 5 2 5 5v6c0 2-1 3-3 3H10c-3 0-5-2-5-4v-6c0-2 1-4 3-4z"/>
    <!-- Cockpit windshield -->
    <path d="M8 16c-1 0-2 1-2 2v4c0 1 1 2 2 2h4V16H8z" fill="#fcd34d" opacity="0.4"/>
    <!-- Tail boom -->
    <path d="M33 19h10c2 0 3 1 3 2v2c0 1-1 1-2 1H33v-5z"/>
    <!-- Tail rotor -->
    <ellipse cx="46" cy="18" rx="1.5" ry="5" fill="#f59e0b"/>
    <rect x="45" y="13" width="2" height="10" rx="1" fill="#f59e0b"/>
    <!-- Tail fin -->
    <path d="M43 19l3-5v5h-3z"/>
    <!-- Landing skids -->
    <rect x="9" y="29" width="18" height="1.5" rx="0.75"/>
    <!-- Skid struts -->
    <rect x="12" y="27" width="1.5" height="3" rx="0.5"/>
    <rect x="22" y="27" width="1.5" height="3" rx="0.5"/>
    <!-- Door line -->
    <line x1="18" y1="15" x2="18" y2="27" stroke="#d97706" stroke-width="0.5"/>
    <!-- Engine exhaust -->
    <rect x="24" y="13" width="4" height="2" rx="0.5" fill="#d97706"/>
  </g>
</svg>